<svg width="243" height="41" viewBox="0 0 243 41" fill="none" xmlns="http://www.w3.org/2000/svg">
<path d="M1.99797 21.2647C16.968 14.3547 33.588 18.5247 48.988 21.5647C59.388 23.6247 72.038 27.3447 80.628 19.0147C81.838 17.8447 79.988 15.9947 78.778 17.1647C72.108 23.6347 62.628 21.4847 54.428 19.9547C47.328 18.6247 40.318 16.8447 33.218 15.5247C27.388 14.4347 21.638 15.3247 15.748 15.3047C10.208 15.2847 5.67797 16.6947 0.67797 19.0047C-0.85203 19.7047 0.47797 21.9647 1.99797 21.2647Z" fill="#4D531B"/>
<path d="M26.968 15.6947C27.558 8.92466 39.878 4.82466 45.138 2.38466C44.538 1.78466 43.948 1.19466 43.348 0.594659C41.088 3.60466 36.958 5.40466 33.788 7.31466C30.928 9.03466 28.238 10.8747 25.888 13.2547C25.058 14.0947 25.708 15.4147 26.808 15.4847C29.668 15.6547 33.028 12.4547 35.198 10.8547C38.398 8.49466 41.338 5.85466 44.078 2.97466C45.238 1.75466 43.398 -0.0953411 42.228 1.12466C39.898 3.56466 37.438 5.84466 34.758 7.90466C33.018 9.24466 29.078 12.9947 26.798 12.8647C27.108 13.6047 27.418 14.3547 27.718 15.0947C32.908 9.84466 41.138 7.82466 45.588 1.90466C46.458 0.744659 44.838 -0.365341 43.798 0.114659C37.158 3.19466 25.078 7.03466 24.328 15.6847C24.188 17.3647 26.798 17.3547 26.938 15.6847L26.968 15.6947Z" fill="#4D531B"/>
<path d="M33.098 18.8947C34.848 22.3147 36.748 26.2347 39.728 28.7747C42.618 31.2347 46.508 32.7647 49.918 34.3447C51.038 34.8547 52.428 33.7647 51.708 32.5547C49.918 29.5647 47.338 27.4247 44.708 25.1947C41.518 22.5047 38.428 19.7047 35.418 16.8147C34.368 15.8047 32.568 17.1047 33.368 18.3947C35.058 21.1447 37.058 23.6247 39.158 26.0547C41.208 28.4147 43.258 29.7747 45.918 31.3947C47.358 32.2747 48.668 30.0147 47.238 29.1347C42.258 26.0947 38.698 22.0847 35.628 17.0747C34.948 17.6047 34.258 18.1347 33.578 18.6547C36.298 21.2647 39.088 23.8147 41.958 26.2647C44.688 28.5947 47.588 30.7347 49.458 33.8647C50.058 33.2647 50.648 32.6747 51.248 32.0747C48.208 30.6747 44.888 29.3047 42.158 27.3447C39.008 25.0747 37.088 20.9547 35.368 17.5747C34.598 16.0747 32.348 17.3947 33.108 18.8947H33.098Z" fill="#4D531B"/>
<path d="M50.588 20.5447C55.358 14.7947 62.318 12.8447 69.428 11.6847L68.418 9.29466C65.698 10.6547 62.998 12.0647 60.338 13.5447C57.418 15.1647 53.978 17.9747 50.628 18.4147C50.848 19.2247 51.068 20.0347 51.288 20.8547C54.438 19.0147 57.548 17.1047 60.618 15.1247C62.028 14.2147 60.718 11.9547 59.298 12.8647C56.228 14.8447 53.118 16.7547 49.968 18.5947C48.938 19.1947 49.278 21.2047 50.628 21.0347C53.908 20.6047 56.378 18.8247 59.208 17.1947C62.658 15.2047 66.168 13.3447 69.728 11.5647C71.148 10.8547 70.078 8.95466 68.718 9.17466C61.198 10.4047 53.758 12.6447 48.728 18.7047C47.658 19.9947 49.498 21.8447 50.578 20.5547L50.588 20.5447Z" fill="#4D531B"/>
<path d="M60.258 23.7347C62.828 28.6947 69.758 31.1147 74.818 32.4647C76.148 32.8247 76.898 31.2447 76.088 30.2847C74.528 28.4347 72.848 26.6747 70.758 25.4347C68.698 24.2047 66.298 23.6747 64.498 22.0247C63.388 21.0047 61.778 22.2747 62.448 23.6047C63.998 26.6847 68.078 28.1047 70.908 29.6947C72.378 30.5147 73.698 28.2647 72.228 27.4347C69.878 26.1147 65.978 24.8247 64.708 22.2847C64.028 22.8147 63.338 23.3447 62.658 23.8647C64.238 25.3147 66.078 26.0247 67.988 26.9247C70.548 28.1247 72.448 29.9947 74.248 32.1247C74.668 31.3947 75.098 30.6647 75.518 29.9447C71.188 28.7847 64.738 26.6847 62.518 22.4147C61.738 20.9247 59.488 22.2447 60.258 23.7347Z" fill="#4D531B"/>
<path d="M77.168 21.1847C79.058 18.9647 80.828 16.6547 82.688 14.4247C84.318 12.4647 86.228 10.1047 88.478 8.85466L86.688 7.06466C84.318 11.4147 81.548 15.4547 77.178 17.9747C75.718 18.8147 77.038 21.0747 78.498 20.2347C83.258 17.4947 86.368 13.1247 88.948 8.38466C89.568 7.23466 88.318 5.94466 87.158 6.59466C82.258 9.33466 78.878 15.1547 75.318 19.3447C74.238 20.6147 76.078 22.4747 77.168 21.1947V21.1847Z" fill="#4D531B"/>
<path d="M78.088 21.9247C82.658 24.0347 86.938 25.6047 92.018 25.6347C98.228 25.6747 104.498 26.5447 110.638 25.4047C117.338 24.1547 123.958 22.4647 130.658 21.1947C139.188 19.5747 149.228 17.0147 156.198 23.7647C157.408 24.9347 159.258 23.0847 158.048 21.9147C149.458 13.5947 136.798 17.3147 126.408 19.3647C111.008 22.4147 94.388 26.5747 79.418 19.6647C77.898 18.9647 76.568 21.2147 78.098 21.9247H78.088Z" fill="#4D531B"/>
<path d="M101.768 25.2347C102.518 33.8647 114.618 37.7247 121.238 40.8047C122.278 41.2847 123.898 40.1747 123.028 39.0147C118.578 33.0947 110.348 31.0747 105.158 25.8247C104.848 26.5647 104.538 27.3147 104.238 28.0547C106.518 27.9147 110.458 31.6647 112.198 33.0147C114.868 35.0747 117.338 37.3547 119.668 39.7947C120.828 41.0147 122.678 39.1647 121.518 37.9447C118.778 35.0747 115.828 32.4247 112.638 30.0647C110.488 28.4747 107.088 25.2647 104.248 25.4347C103.138 25.5047 102.498 26.8247 103.328 27.6647C105.678 30.0447 108.378 31.8847 111.228 33.6047C114.408 35.5147 118.518 37.3047 120.788 40.3247C121.388 39.7247 121.978 39.1347 122.578 38.5347C117.318 36.0847 104.988 31.9947 104.408 25.2247C104.268 23.5647 101.648 23.5447 101.798 25.2247L101.768 25.2347Z" fill="#4D531B"/>
<path d="M112.768 23.3547C114.488 19.9947 116.418 15.8447 119.558 13.5847C122.298 11.6147 125.598 10.2547 128.648 8.85466C128.048 8.25466 127.458 7.66466 126.858 7.06466C124.978 10.1947 122.088 12.3247 119.358 14.6647C116.488 17.1147 113.698 19.6647 110.978 22.2747C111.658 22.8047 112.348 23.3347 113.028 23.8547C116.098 18.8547 119.668 14.8247 124.638 11.7947C126.068 10.9147 124.758 8.65466 123.318 9.53466C120.638 11.1747 118.618 12.4947 116.558 14.8747C114.458 17.3047 112.448 19.7847 110.768 22.5347C109.978 23.8147 111.758 25.1347 112.818 24.1147C115.828 21.2247 118.918 18.4247 122.108 15.7347C124.738 13.5047 127.318 11.3647 129.108 8.37466C129.828 7.16466 128.438 6.07466 127.318 6.58466C123.898 8.15466 120.028 9.69466 117.128 12.1547C114.148 14.6847 112.248 18.6147 110.498 22.0347C109.738 23.5347 111.988 24.8547 112.758 23.3547H112.768Z" fill="#4D531B"/>
<path d="M126.148 22.2347C131.178 28.3047 138.618 30.5347 146.138 31.7647C147.478 31.9847 148.578 30.0947 147.148 29.3747C143.588 27.5947 140.078 25.7347 136.628 23.7447C133.808 22.1147 131.318 20.3347 128.048 19.9047C126.698 19.7247 126.358 21.7347 127.388 22.3447C130.538 24.1847 133.648 26.0947 136.718 28.0747C138.138 28.9847 139.448 26.7247 138.038 25.8147C134.968 23.8347 131.858 21.9247 128.708 20.0847C128.488 20.8947 128.268 21.7047 128.048 22.5247C131.378 22.9647 134.868 25.7847 137.758 27.3947C140.418 28.8747 143.118 30.2847 145.838 31.6447C146.178 30.8447 146.508 30.0547 146.848 29.2547C139.738 28.0947 132.788 26.1547 128.008 20.3947C126.938 19.0947 125.088 20.9547 126.158 22.2447L126.148 22.2347Z" fill="#4D531B"/>
<path d="M139.928 18.5147C142.148 14.2347 148.588 12.1447 152.928 10.9847C152.508 10.2547 152.078 9.52466 151.658 8.80466C149.858 10.9447 147.968 12.8047 145.398 14.0047C143.488 14.8947 141.648 15.6147 140.068 17.0647C140.748 17.5947 141.438 18.1247 142.118 18.6447C143.388 16.1247 147.288 14.8147 149.638 13.4947C151.108 12.6747 149.788 10.4147 148.318 11.2347C145.458 12.8347 141.418 14.2247 139.858 17.3247C139.198 18.6447 140.788 19.9347 141.908 18.9047C143.708 17.2547 146.108 16.7147 148.168 15.4947C150.258 14.2447 151.938 12.4947 153.498 10.6447C154.308 9.68466 153.558 8.10466 152.228 8.46466C147.168 9.82466 140.248 12.2447 137.668 17.1947C136.898 18.6847 139.148 20.0047 139.928 18.5147Z" fill="#4D531B"/>
<path d="M152.728 21.5947C156.288 25.7747 159.668 31.5947 164.568 34.3447C165.728 34.9947 166.978 33.7047 166.358 32.5547C163.778 27.8147 160.668 23.4447 155.908 20.7047C154.448 19.8647 153.128 22.1247 154.588 22.9647C158.968 25.4847 161.738 29.5247 164.098 33.8747C164.698 33.2747 165.288 32.6847 165.888 32.0847C163.638 30.8247 161.728 28.4747 160.098 26.5147C158.238 24.2747 156.468 21.9747 154.578 19.7547C153.488 18.4747 151.648 20.3247 152.728 21.6047V21.5947Z" fill="#4D531B"/>
<path d="M155.338 21.2647C170.308 14.3547 186.928 18.5247 202.328 21.5647C212.728 23.6247 225.378 27.3447 233.968 19.0147C235.178 17.8447 233.328 15.9947 232.118 17.1647C225.448 23.6347 215.968 21.4847 207.768 19.9547C200.668 18.6247 193.658 16.8447 186.558 15.5247C180.728 14.4347 174.978 15.3247 169.088 15.3047C163.548 15.2847 159.018 16.6947 154.018 19.0047C152.488 19.7047 153.818 21.9647 155.338 21.2647Z" fill="#4D531B"/>
<path d="M180.308 15.6947C180.898 8.92466 193.218 4.82466 198.478 2.38466C197.878 1.78466 197.288 1.19466 196.688 0.594659C194.428 3.60466 190.298 5.40466 187.128 7.31466C184.268 9.03466 181.578 10.8747 179.228 13.2547C178.398 14.0947 179.048 15.4147 180.148 15.4847C183.008 15.6547 186.368 12.4547 188.538 10.8547C191.738 8.49466 194.678 5.85466 197.418 2.97466C198.578 1.75466 196.738 -0.0953411 195.568 1.12466C193.238 3.56466 190.778 5.84466 188.098 7.90466C186.358 9.24466 182.418 12.9947 180.138 12.8647C180.448 13.6047 180.758 14.3547 181.058 15.0947C186.248 9.84466 194.478 7.82466 198.928 1.90466C199.798 0.744659 198.178 -0.365341 197.138 0.114659C190.498 3.19466 178.418 7.03466 177.668 15.6847C177.528 17.3647 180.138 17.3547 180.278 15.6847L180.308 15.6947Z" fill="#4D531B"/>
<path d="M186.438 18.8947C188.188 22.3147 190.088 26.2347 193.068 28.7747C195.958 31.2347 199.848 32.7647 203.258 34.3447C204.378 34.8547 205.768 33.7647 205.048 32.5547C203.258 29.5647 200.678 27.4247 198.048 25.1947C194.858 22.5047 191.768 19.7047 188.758 16.8147C187.708 15.8047 185.908 17.1047 186.708 18.3947C188.388 21.1447 190.398 23.6247 192.498 26.0547C194.548 28.4147 196.598 29.7747 199.258 31.3947C200.698 32.2747 202.008 30.0147 200.578 29.1347C195.598 26.0947 192.038 22.0847 188.968 17.0747C188.288 17.6047 187.598 18.1347 186.918 18.6547C189.638 21.2647 192.428 23.8147 195.298 26.2647C198.028 28.5947 200.928 30.7347 202.798 33.8647C203.398 33.2647 203.988 32.6747 204.588 32.0747C201.548 30.6747 198.228 29.3047 195.498 27.3447C192.348 25.0747 190.428 20.9547 188.708 17.5747C187.938 16.0747 185.688 17.3947 186.448 18.8947H186.438Z" fill="#4D531B"/>
<path d="M203.928 20.5447C208.698 14.7947 215.658 12.8447 222.768 11.6847C222.428 10.8847 222.098 10.0947 221.758 9.29466C219.038 10.6547 216.338 12.0647 213.678 13.5447C210.758 15.1647 207.318 17.9747 203.968 18.4147C204.188 19.2247 204.408 20.0347 204.628 20.8547C207.778 19.0147 210.888 17.1047 213.958 15.1247C215.368 14.2147 214.058 11.9547 212.638 12.8647C209.568 14.8447 206.458 16.7547 203.308 18.5947C202.278 19.1947 202.618 21.2047 203.968 21.0347C207.248 20.6047 209.718 18.8247 212.548 17.1947C215.998 15.2047 219.508 13.3447 223.068 11.5647C224.488 10.8547 223.418 8.95466 222.058 9.17466C214.538 10.4047 207.098 12.6447 202.068 18.7047C200.998 19.9947 202.838 21.8447 203.918 20.5547L203.928 20.5447Z" fill="#4D531B"/>
<path d="M213.598 23.7347C216.168 28.6947 223.098 31.1147 228.158 32.4647C229.488 32.8247 230.238 31.2447 229.428 30.2847C227.868 28.4347 226.188 26.6747 224.098 25.4347C222.038 24.2047 219.638 23.6747 217.838 22.0247C216.728 21.0047 215.118 22.2747 215.788 23.6047C217.338 26.6847 221.418 28.1047 224.248 29.6947C225.718 30.5147 227.038 28.2647 225.568 27.4347C223.218 26.1147 219.318 24.8247 218.048 22.2847C217.368 22.8147 216.678 23.3447 215.998 23.8647C217.578 25.3147 219.418 26.0247 221.328 26.9247C223.888 28.1247 225.788 29.9947 227.588 32.1247C228.008 31.3947 228.438 30.6647 228.858 29.9447C224.528 28.7847 218.078 26.6847 215.858 22.4147C215.078 20.9247 212.828 22.2447 213.598 23.7347Z" fill="#4D531B"/>
<path d="M230.508 21.1847C232.398 18.9647 234.168 16.6547 236.028 14.4247C237.658 12.4647 239.568 10.1047 241.818 8.85466C241.218 8.25466 240.628 7.66466 240.028 7.06466C237.658 11.4147 234.888 15.4547 230.518 17.9747C229.058 18.8147 230.378 21.0747 231.838 20.2347C236.598 17.4947 239.708 13.1247 242.288 8.38466C242.908 7.23466 241.658 5.94466 240.498 6.59466C235.598 9.33466 232.218 15.1547 228.658 19.3447C227.578 20.6147 229.418 22.4747 230.508 21.1947V21.1847Z" fill="#4D531B"/>
</svg>
